# xmcd CD database file
#
# Track frame offsets:
#	150
#	16142
#	40792
#	63944
#
# Disc length: 1072 seconds
#
# Revision: 5
# Processed by: cddbd v1.5.1PL0 Copyright (c) Steve Scherf et al.
# Submitted via: CDex 1.51
#
DISCID=25042e04
DTITLE=Love Connection - The Bomb [CD Single)
DYEAR=2000
DGENRE=Jazz
TTITLE0=The Bomb (Triple X FM Cut)
TTITLE1=The Bomb (Triple X Club Mix)
TTITLE2=The Bomb (Original Extended)
TTITLE3=The Bomb (Original Edit)
EXTD=YEAR: 2000
EXTT0=
EXTT1=
EXTT2=
EXTT3=
PLAYORDER=
